HIERARCHY
ROOT Hips
{
	OFFSET -3.958830 18.904000 13.208200
	CHANNELS 6 Xposition Yposition Zposition Zrotation Yrotation Xrotation 
	JOINT LHipJoint
	{
		OFFSET 0.000000 0.000000 0.000000
		CHANNELS 3 Zrotation Yrotation Xrotation
		JOINT LeftUpLeg
		{
			OFFSET 1.800000 -1.400000 0.085000
			CHANNELS 3 Zrotation Yrotation Xrotation
			JOINT LeftLeg
			{
				OFFSET 2.215000 -6.000000 0.000000
				CHANNELS 3 Zrotation Yrotation Xrotation
				JOINT LeftFoot
				{
					OFFSET 2.500000 -6.900000 0.000000
					CHANNELS 3 Zrotation Yrotation Xrotation
					JOINT LeftToeBase
					{
						OFFSET 0.200000 -0.500000 1.950000
						CHANNELS 3 Zrotation Yrotation Xrotation
						End Site
						{
							OFFSET 0.000000 0.000000 0.000000
						}
					}
				}
			}
		}
	}
	JOINT RHipJoint
	{
		OFFSET 0.000000 0.000000 0.000000
		CHANNELS 3 Zrotation Yrotation Xrotation
		JOINT RightUpLeg
		{
			OFFSET -1.800000 -1.400000 0.085000
			CHANNELS 3 Zrotation Yrotation Xrotation
			JOINT RightLeg
			{
				OFFSET -2.215000 -6.000000 0.000000
				CHANNELS 3 Zrotation Yrotation Xrotation
				JOINT RightFoot
				{
					OFFSET -2.500000 -6.900000 0.000000
					CHANNELS 3 Zrotation Yrotation Xrotation
					JOINT RightToeBase
					{
						OFFSET -0.200000 -0.500000 1.950000
						CHANNELS 3 Zrotation Yrotation Xrotation
						End Site
						{
							OFFSET 0.000000 0.000000 0.000000
						}
					}
				}
			}
		}
	}
	JOINT LowerBack
	{
		OFFSET 0.000000 0.000000 0.000000
		CHANNELS 3 Zrotation Yrotation Xrotation
		JOINT Spine
		{
			OFFSET -0.087000 1.940000 -0.288900
			CHANNELS 3 Zrotation Yrotation Xrotation
			JOINT Spine1
			{
				OFFSET 0.000000 1.950000 0.060000
				CHANNELS 3 Zrotation Yrotation Xrotation
				JOINT Neck
				{
					OFFSET 0.000000 0.000000 0.000000
					CHANNELS 3 Zrotation Yrotation Xrotation
					JOINT Neck1
					{
						OFFSET 0.000000 1.600000 0.340000
						CHANNELS 3 Zrotation Yrotation Xrotation
						JOINT Head
						{
							OFFSET 0.000000 1.667000 -0.240000
							CHANNELS 3 Zrotation Yrotation Xrotation
							End Site
							{
								OFFSET 0.000000 0.000000 0.000000
							}
						}
					}
				}
				JOINT LeftShoulder
				{
					OFFSET 0.000000 0.000000 0.000000
					CHANNELS 3 Zrotation Yrotation Xrotation
					JOINT LeftArm
					{
						OFFSET 2.700000 1.550000 -0.730000
						CHANNELS 3 Zrotation Yrotation Xrotation
						JOINT LeftForeArm
						{
							OFFSET 5.450000 0.000000 0.000000
							CHANNELS 3 Zrotation Yrotation Xrotation
							JOINT LeftHand
							{
								OFFSET 3.450000 0.000000 0.000000
								CHANNELS 3 Zrotation Yrotation Xrotation
								JOINT LeftHandIndex1
								{
									OFFSET 0.750000 0.000000 0.000000
									CHANNELS 3 Zrotation Yrotation Xrotation
									End Site
									{
										OFFSET 0.000000 0.000000 0.000000
									}
								}
							}
						}
					}
				}
				JOINT RightShoulder
				{
					OFFSET 0.000000 0.000000 0.000000
					CHANNELS 3 Zrotation Yrotation Xrotation
					JOINT RightArm
					{
						OFFSET -2.700000 1.550000 -0.730000
						CHANNELS 3 Zrotation Yrotation Xrotation
						JOINT RightForeArm
						{
							OFFSET -5.450000 0.000000 0.000000
							CHANNELS 3 Zrotation Yrotation Xrotation
							JOINT RightHand
							{
								OFFSET -3.450000 0.000000 0.000000
								CHANNELS 3 Zrotation Yrotation Xrotation
								JOINT RightHandIndex1
								{
									OFFSET -0.750000 0.000000 0.000000
									CHANNELS 3 Zrotation Yrotation Xrotation
									End Site
									{
										OFFSET 0.000000 0.000000 0.000000
									}
								}
							}
						}
					}
				}
			}
		}
	}
}
MOTION
Frames: 14
Frame Time: 0.016667
0.133400 17.044820 -0.356440 0.953363 26.142294 13.082662 -14.899840 11.998367 2.972649 9.191734 -2.780854 -20.813029 -5.260270 3.048405 1.512508 -1.161618 4.099254 3.625632 0.000250 -0.539950 0.138520 18.570095 -11.497339 2.334045 -13.067511 1.633948 -10.577309 6.516462 -5.325135 10.537477 0.174185 -4.683015 2.831232 0.202160 1.260570 0.538050 -4.778897 1.098000 -6.546114 14.779417 4.667473 -0.527720 -6.113020 4.247120 -1.780754 1.220096 -4.615811 -4.307994 -5.468497 6.823867 10.748165 -8.739970 6.524420 3.601430 -6.392686 15.906770 -0.585540 -26.439919 17.079992 -5.620817 35.477469 -63.586956 -18.069002 -4.812187 3.222739 0.074780 1.057360 -0.690420 0.243630 3.255764 -10.850066 2.201665 29.308726 -11.194073 -9.706754 -23.231267 69.433542 -13.516913 1.335117 -2.077326 -0.722010 0.355610 0.246780 -0.161970 
0.162490 17.043050 -0.354460 1.030626 26.780588 13.300944 -14.913051 12.012027 2.990755 8.920283 -2.821469 -20.987016 -5.233909 3.015779 1.343362 -1.127157 4.048285 3.641401 -0.034490 -0.588610 0.119600 18.559605 -11.447148 2.350932 -13.041340 1.599120 -10.145477 6.481727 -5.235472 9.841321 0.168684 -4.647003 2.856659 0.150900 1.240310 0.522980 -4.753765 0.974618 -6.572559 14.541109 4.751013 -0.414697 -5.948745 4.378879 -2.422972 1.243573 -4.806109 -4.342579 -5.809988 6.551121 11.239514 -8.598010 6.438430 3.820730 -6.282559 15.698755 -0.752712 -26.688581 16.342142 -5.928762 30.364127 -52.191402 -11.548306 -4.839826 3.226101 0.099270 1.021760 -0.679080 0.233880 3.039875 -10.417995 2.351822 28.965845 -10.894913 -9.665767 -23.109954 58.492938 -10.084441 1.459480 -2.027804 -0.718850 0.342270 0.254660 -0.160100 
0.188400 17.040420 -0.350630 1.147547 27.378544 13.459985 -14.929334 12.032562 3.008850 8.679726 -2.849411 -21.050519 -5.237071 2.983176 1.125345 -1.090149 4.007416 3.653227 -0.059560 -0.623060 0.097630 18.545279 -11.397020 2.361892 -13.051933 1.555000 -9.680010 6.448071 -5.170490 9.279461 0.159063 -4.628535 2.873077 0.109140 1.222660 0.512970 -4.718103 0.837060 -6.597916 14.237824 4.854836 -0.331929 -5.816729 4.531596 -2.737402 1.281703 -4.982902 -4.538890 -6.161780 6.283239 11.798266 -8.304910 6.200190 4.102460 -6.485206 15.100369 -0.833490 -26.809591 15.627889 -6.011387 28.862237 -41.345674 -8.140934 -4.864421 3.150331 0.117680 0.988610 -0.667660 0.230340 3.169934 -9.662076 2.650973 28.384989 -10.788720 -9.248663 -23.602377 48.035518 -7.935607 1.596767 -1.970097 -0.709680 0.327670 0.259630 -0.152630 
0.210960 17.038690 -0.345880 1.298496 27.911223 13.541096 -14.942551 12.058176 3.019306 8.423667 -2.863395 -21.021608 -5.206786 2.953646 0.957226 -1.061358 3.962051 3.665073 -0.078050 -0.646150 0.077480 18.532550 -11.350539 2.379664 -13.101694 1.498495 -9.132612 6.422333 -5.106545 8.653004 0.141819 -4.613053 2.888456 0.075090 1.201090 0.495700 -4.691182 0.703756 -6.628354 14.026816 4.923588 -0.225827 -5.842171 4.667155 -2.837619 1.317457 -5.187893 -4.825375 -6.602949 6.066752 12.567708 -7.885450 5.868160 4.180760 -6.755774 14.413217 -0.848352 -26.797841 15.001839 -5.827396 28.244662 -31.516382 -5.877942 -4.878554 3.047884 0.145390 0.947690 -0.650380 0.228640 3.387622 -8.832302 2.997837 27.802608 -10.548983 -8.571813 -24.120863 38.107300 -6.336663 1.746006 -1.901810 -0.704310 0.323860 0.262860 -0.145590 
0.231560 17.034680 -0.339870 1.483576 28.410638 13.567765 -14.951960 12.070436 3.021293 8.188768 -2.870020 -20.889608 -5.194039 2.923429 0.765981 -1.036712 3.928304 3.674032 -0.083580 -0.656820 0.064500 18.524867 -11.310816 2.399673 -13.241389 1.443408 -8.525641 6.446183 -5.059806 8.024687 0.121052 -4.622522 2.894286 0.052680 1.182850 0.482750 -4.674675 0.609283 -6.651372 13.808710 5.019908 -0.195387 -5.942303 4.827257 -2.624466 1.338077 -5.345646 -5.134588 -6.979888 5.930906 13.352896 -7.316340 5.459130 4.273680 -6.910685 13.772877 -0.785613 -26.770616 14.518288 -5.531958 27.991524 -23.614163 -4.347083 -4.892517 2.967799 0.166980 0.912590 -0.636540 0.231050 3.543913 -8.097392 3.318981 27.310496 -10.314391 -7.865183 -24.206105 29.369107 -5.044532 1.887749 -1.850341 -0.696700 0.320470 0.261700 -0.138770 
0.250060 17.031230 -0.334080 1.590643 28.792454 13.559823 -14.956623 12.072014 3.020157 8.066281 -2.858790 -20.761622 -5.253048 2.915850 0.650340 -1.022556 3.908107 3.671550 -0.079070 -0.654480 0.060560 18.522306 -11.283888 2.417603 -13.332710 1.404438 -8.008612 6.416522 -5.010420 7.503999 0.100716 -4.631612 2.894791 0.043090 1.159700 0.473120 -4.669956 0.559400 -6.667300 13.630644 5.192246 -0.171252 -6.037206 5.049183 -2.374172 1.370211 -5.447318 -5.343254 -7.250834 5.860184 14.063355 -6.828990 5.128260 4.170880 -7.157151 13.318447 -0.754758 -26.587244 14.243829 -5.193547 27.918448 -17.755513 -3.267700 -4.904341 2.914652 0.186120 0.881360 -0.621790 0.230530 3.752889 -7.580812 3.546983 26.726107 -10.127932 -7.179091 -23.985380 22.025991 -3.948137 2.011615 -1.810700 -0.688110 0.315810 0.259670 -0.137090 
0.267960 17.028180 -0.327840 1.753131 29.277025 13.555089 -14.962365 12.069258 3.014366 7.891466 -2.861992 -20.690507 -5.296418 2.911823 0.635896 -1.024330 3.898798 3.668526 -0.072780 -0.649880 0.058920 18.520487 -11.267116 2.426927 -13.436420 1.362507 -7.491177 6.361530 -4.989099 7.140265 0.081107 -4.661692 2.883194 0.042580 1.149200 0.472920 -4.664713 0.528774 -6.666009 13.355068 5.364394 -0.187837 -6.045242 5.242134 -2.109260 1.374027 -5.493725 -5.377315 -7.399615 5.789556 14.611180 -6.557770 4.855180 4.019030 -7.417410 13.141574 -0.818948 -26.335584 13.978445 -4.883209 27.857144 -13.738217 -2.541063 -4.924872 2.880911 0.199500 0.865840 -0.612440 0.230810 4.015218 -7.392003 3.643687 26.022882 -10.042320 -6.564449 -23.578621 16.148339 -3.030242 2.107711 -1.783970 -0.683950 0.315540 0.261950 -0.136560 
0.283210 17.024720 -0.319900 1.825842 29.591321 13.553706 -14.959812 12.047914 3.001726 7.817096 -2.851064 -20.597277 -5.386399 2.917440 0.631704 -1.025881 3.904487 3.661506 -0.061340 -0.637040 0.061340 18.528841 -11.257233 2.439889 -13.505677 1.340373 -7.091732 6.381837 -4.975385 6.790739 0.062014 -4.699181 2.865787 0.049440 1.145220 0.482040 -4.680606 0.550587 -6.656950 13.204880 5.558916 -0.258586 -6.143364 5.431714 -1.880459 1.365757 -5.502393 -5.261183 -7.455400 5.860717 14.996911 -6.401070 4.771160 3.861790 -7.743965 13.179885 -0.931266 -25.786630 13.902444 -4.595339 27.538735 -11.160114 -2.058865 -4.949620 2.867129 0.202760 0.862320 -0.604750 0.232990 4.328740 -7.454536 3.618307 25.401442 -9.966930 -6.085623 -23.336572 11.829934 -2.344997 2.177085 -1.774184 -0.676110 0.312920 0.262050 -0.134450 
0.295750 17.021300 -0.312250 1.923842 29.740611 13.614688 -14.958081 12.023523 2.992979 7.707617 -2.850326 -20.488173 -5.471611 2.912273 0.560396 -1.035527 3.921919 3.655505 -0.056560 -0.633870 0.059570 18.535915 -11.255041 2.442647 -13.627572 1.341315 -6.849487 6.378537 -4.978858 6.619415 0.053704 -4.740531 2.847979 0.056800 1.152590 0.493820 -4.688254 0.587504 -6.639475 12.941020 5.758370 -0.360525 -6.194330 5.624460 -1.556983 1.369823 -5.469259 -5.166566 -7.415594 5.991504 15.170208 -6.437520 4.846210 3.894380 -8.068914 13.175028 -0.970712 -25.347829 14.145424 -4.418910 27.302890 -9.488188 -1.756992 -4.980954 2.862298 0.200680 0.872410 -0.607870 0.235490 4.639130 -7.487186 3.574933 24.945023 -9.867156 -5.724093 -23.108822 8.408613 -1.796750 2.223740 -1.774251 -0.676040 0.310400 0.267030 -0.135270 
0.305380 17.017910 -0.305740 1.957374 29.779963 13.705543 -14.953148 11.999114 2.986862 7.663009 -2.850906 -20.480509 -5.539607 2.916605 0.563997 -1.030856 3.924915 3.651203 -0.054130 -0.630090 0.058110 18.544036 -11.264205 2.443872 -13.681412 1.356193 -6.792372 6.342751 -4.968984 6.563482 0.054026 -4.764299 2.833202 0.060400 1.153580 0.504770 -4.701880 0.647397 -6.622745 12.718538 5.978638 -0.459169 -6.278623 5.829267 -1.345186 1.397392 -5.395353 -5.078911 -7.288451 6.095450 15.285920 -6.511370 4.998360 4.175950 -8.282761 13.219897 -0.994705 -24.947243 14.401743 -4.291765 27.130944 -8.259523 -1.516790 -5.008377 2.875730 0.185150 0.881960 -0.612880 0.235220 4.783164 -7.563894 3.529205 24.785769 -9.744576 -5.474997 -22.938494 5.699785 -1.353338 2.269962 -1.786407 -0.667310 0.294970 0.267170 -0.133200 
0.314370 17.014470 -0.299870 2.001589 29.802408 13.773588 -14.948186 11.982899 2.985069 7.630263 -2.846174 -20.455285 -5.661577 2.932722 0.589102 -1.008768 3.919794 3.647790 -0.046670 -0.619640 0.059800 18.549976 -11.275996 2.442558 -13.732512 1.366963 -6.751189 6.239910 -4.950003 6.552082 0.049451 -4.775513 2.821312 0.058870 1.145720 0.518860 -4.715736 0.694534 -6.613733 12.554472 6.138816 -0.505783 -6.429674 5.987498 -1.116621 1.433637 -5.360262 -5.063799 -7.248217 6.223383 15.499381 -6.506010 5.165690 4.458420 -8.470725 13.178200 -0.952703 -24.564379 14.732130 -4.208027 26.840945 -7.286485 -1.318578 -5.019198 2.898761 0.169100 0.883240 -0.608760 0.237190 4.888942 -7.526822 3.522282 24.673792 -9.606694 -5.273825 -22.636494 3.509407 -0.975214 2.317163 -1.799072 -0.646580 0.271090 0.259640 -0.126410 
0.323550 17.010730 -0.295390 1.961946 29.826760 13.814555 -14.941974 11.967118 2.981469 7.651641 -2.836443 -20.465601 -5.711679 2.936722 0.605429 -0.979014 3.913240 3.646938 -0.039350 -0.604950 0.055650 18.557803 -11.291119 2.438647 -13.707282 1.375215 -6.742086 6.065937 -4.914257 6.561288 0.046277 -4.784986 2.810108 0.059410 1.145160 0.541070 -4.734852 0.747160 -6.600740 12.480126 6.285660 -0.573040 -6.478110 6.118332 -0.929973 1.423172 -5.352757 -5.002293 -7.244445 6.374862 15.653566 -6.510480 5.334910 4.853110 -8.639821 13.205454 -0.942813 -24.264001 14.914153 -4.124522 26.598484 -6.530481 -1.161769 -5.036473 2.930413 0.142160 0.892510 -0.604670 0.244490 5.062504 -7.538416 3.482757 24.276279 -9.403357 -4.999722 -22.250990 1.579621 -0.643336 2.361486 -1.818596 -0.619740 0.244310 0.250160 -0.111870 
0.332590 17.006280 -0.289930 1.966717 29.869131 13.813235 -14.941318 11.964870 2.978689 7.665792 -2.811896 -20.388728 -5.794315 2.953785 0.607662 -0.954649 3.911173 3.647977 -0.038150 -0.594760 0.046070 18.558929 -11.301333 2.430997 -13.731562 1.362427 -6.636103 5.870538 -4.887456 6.584049 0.045498 -4.793804 2.810040 0.058840 1.147050 0.546240 -4.737718 0.764092 -6.590334 12.292073 6.414122 -0.605892 -6.388892 6.239963 -0.723013 1.383584 -5.356165 -4.982341 -7.285775 6.510824 15.920170 -6.381380 5.422490 5.186080 -8.655152 13.206053 -0.913611 -24.195909 14.954879 -4.103060 26.461593 -5.958113 -1.049551 -5.042770 2.941921 0.124520 0.896880 -0.604480 0.250910 5.162144 -7.506249 3.463700 23.897615 -9.226708 -4.782418 -21.864830 -0.054245 -0.353961 2.397934 -1.822514 -0.605130 0.233150 0.243240 -0.100080 
0.343300 17.003510 -0.283030 1.904254 30.069701 13.741986 -14.943826 11.971582 2.979007 7.773785 -2.767978 -20.312570 -5.902608 2.982385 0.601259 -0.932761 3.911584 3.644092 -0.043930 -0.594840 0.037400 18.555527 -11.299246 2.432052 -13.730052 1.327352 -6.356021 5.795189 -4.890125 6.510105 0.037929 -4.806394 2.814001 0.049430 1.138400 0.543360 -4.735060 0.744171 -6.598103 12.212207 6.480401 -0.564305 -6.310218 6.292248 -0.720705 1.405504 -5.344496 -4.987527 -7.335710 6.561412 16.401996 -6.342480 5.543260 5.393540 -8.648015 13.219809 -0.909866 -24.127122 14.919995 -4.092413 26.457780 -5.632111 -0.971618 -5.034231 2.938549 0.124280 0.890170 -0.596930 0.251810 5.104956 -7.512536 3.467524 23.669266 -9.068329 -4.668391 -21.450748 -1.012933 -0.162651 2.424805 -1.807376 -0.596690 0.225760 0.239280 -0.095290 
